<svg xmlns="http://www.w3.org/2000/svg"  viewBox="0 0 3367.438 1630.282">
  <defs>
    <style>
      .cls-2 {
        fill: #40796c;
        fill-rule: evenodd;
      }
    </style>
  </defs>
  <path id="GreenShape" class="cls-2" d="M1029.35,699.02c38.48-14.228,76.33-30.163,113.36-48.075,126.61-61.244,243.65-146.864,332.03-257.027,83.03-103.5,146.51-200.348,296.03-209,119.61-6.92,230.46,64.648,314.7,149.876s151.75,186.611,241.91,265.542a678.962,678.962,0,0,0,336.61,158.383c111.06,17.977,226.24,8.15,335.03,36.837,153.34,40.438,278.9,154.681,365.6,287.5s139.45,284.43,191.38,434.32c-765.72-52.05-1512.72,239.32-2278.46,291.13-214.08,14.49-435.635,8.91-633.4-74.35-183.026-77.05-355.994-245.47-427.38-432.68C163,1160.51,183.262,980.438,302.294,887.771c81.307-63.3,189.963-74.846,292.1-88.416C742.121,779.726,889.923,750.574,1029.35,699.02Z" transform="translate(-188.562 -184.438)"/>
</svg>
