<svg xmlns="http://www.w3.org/2000/svg"  viewBox="0 0 3367.438 1630.282">
  <defs>
    <style>
      .cls-1 {
        fill: #eeaf00;
        fill-rule: evenodd;
      }
    </style>
  </defs>
  <path id="YellowShape" class="cls-1" d="M935.354,668.02c38.481-14.228,76.326-30.163,113.356-48.075,126.61-61.244,243.65-146.864,332.03-257.027,83.03-103.5,146.51-200.348,296.03-209,119.61-6.92,230.46,64.648,314.7,149.876s151.75,186.611,241.91,265.542a678.962,678.962,0,0,0,336.61,158.383c111.06,17.977,226.24,8.15,335.03,36.837,153.34,40.438,278.9,154.681,365.6,287.5s139.45,284.43,191.38,434.32c-765.72-52.05-1512.72,239.32-2278.46,291.13-214.076,14.49-435.635,8.91-633.4-74.35-183.026-77.05-355.994-245.47-427.38-432.68C69,1129.51,89.262,949.438,208.294,856.77c81.307-63.3,189.963-74.845,292.1-88.415C648.121,748.726,795.923,719.574,935.354,668.02Z" transform="translate(-94.563 -153.438)"/>
</svg>
