<svg xmlns="http://www.w3.org/2000/svg"  viewBox="0 0 228.625 301.56">
  <defs>
    <style>
      .cls-3 {
        fill: #f9f5e2;
        fill-rule: evenodd;
      }
    </style>
  </defs>
  <path id="WhiteShape" class="cls-3" d="M153.822,1991.78c-12.583-5.82-25.25-5.34-38.764-3.68-16.588,2.03-30.2,9.29-45.9,13.24-0.26-.07-0.526-0.16-0.791-0.24a1.644,1.644,0,0,0-2.113.96l-0.237.06c-3.691-.51-7.338-1.11-10.845-1.73,8.688-10.03,16.9-20.64,24.744-31.56a92.928,92.928,0,0,0,24.646-4.54,1.085,1.085,0,0,0,.274.13c37.786,5.05,79.379-14.03,98.946-46.69a2.012,2.012,0,0,0-.7-2.76c-15.529-6.94-33.859.74-48.578,6.47-22.644,8.81-39.61,24.77-58.676,39.27-4.243,1.23-8.5,2.46-12.787,3.75,14.256-20.19,27.42-41.19,40.437-61.02a113.247,113.247,0,0,0,16.745-6.08,1.4,1.4,0,0,0,1.676,1.75c34.618-5.7,72.64-23.83,88.318-57.17a2.113,2.113,0,0,0-1.776-3.16c-37.579.91-69.194,19.84-87.148,52.84q-7.291,3.465-14.606,6.92c12.046-18.24,23.767-36.87,34.274-56.09,9.526-3.6,18.072-9.6,26.153-16.4,26.235-11.13,53.731-25.91,62.079-55.05a1.892,1.892,0,0,0-1.79-2.37c-26.7-1.02-60.348,32.88-67.617,58.09a177.044,177.044,0,0,1-16.127,10.82,396.361,396.361,0,0,0,18.719-40.11c6.949-6.24,12.792-13.5,18.314-21a1.586,1.586,0,0,0,1.472-.36c11.97-10.05,20.95-19.54,29.516-32.52,5.98-9.06,13.463-18.58,13.62-29.91a1.9,1.9,0,0,0-2.339-1.85c-25.1,6.63-41.781,38.18-43.826,62.69,0,0.02.02,0.03,0.021,0.06a93.014,93.014,0,0,1-7.616,9.11c-1.872,1.92-3.933,3.6-5.928,5.3q3.7-10.17,6.646-20.65c9.029-8,13.961-23.77,16.295-34.77,2.838-13.39-.054-26.69-11.542-34.84a1.664,1.664,0,0,0-2.267.56c-12.213,20.45-11.745,44.01-4.827,66.36-0.45.89-.89,1.76-1.3,2.63a1.474,1.474,0,0,0,.79,1.91q-3.761,11.745-8.328,23.14a22.615,22.615,0,0,0-2.252,2.93,1.489,1.489,0,0,0,.227,1.95c-0.649,1.55-1.357,3.07-2.027,4.61-0.1-3.03-.47-6.07-0.8-8.8-0.156-1.28-.295-2.56-0.447-3.84a1.68,1.68,0,0,0,1.7-.94c6.181-14.62,4.191-28.58.283-43.42-1.587-6.04-5.695-27.19-14.655-27.28-10.727-.12-6.076,24.23-6.491,29.82-1.242,16.88-3.185,40.89,15.85,48.51a0.745,0.745,0,0,0,.874-0.23c0.129,1.68.268,3.36,0.326,5.04,0.114,3.24-.414,6.41-0.382,9.59a483.6,483.6,0,0,1-24.088,45.2c0-4.96-1.61-10.26-2.862-14.55-0.406-1.39-.958-2.72-1.45-4.09a1.679,1.679,0,0,0,1.842-1.44c2.805-20.99-4.931-51.84-23.78-63.58a1.988,1.988,0,0,0-2.691.67c-13.313,18.47-1.947,68.79,24.162,71.11a42.244,42.244,0,0,1,1.1,7.29c0.227,4.21-.989,8.21-1.036,12.36q-8.377,13.575-17.369,26.81-3.666,5.415-7.334,10.8c-0.075.04-.147,0.07-0.222,0.11a1.092,1.092,0,0,0-.646,1.18q-3.231,4.755-6.457,9.51a37.17,37.17,0,0,0-1.568-9.5,1.179,1.179,0,0,0,.459-0.41c6.867-12.37-.075-32.76-4.494-44.84-5.143-14.05-13.87-28.61-27.449-35.79a1.734,1.734,0,0,0-2.518,1.01c-5.16,14.3-.331,31.58,2.753,45.85,3.562,16.48,10.492,31.5,27.232,37.47,0.338,4.96-.173,9.76-0.35,14.88-12.319,17.97-24.833,35.71-37.963,52.98a50.06,50.06,0,0,0,.516-10.5c5.281-13.12,5.5-30.43,4.577-43.67-1.117-16.04-7.589-31.13-22.075-39.07a1.981,1.981,0,0,0-2.706.68c-13.232,26.43-11.475,71.58,16.652,88.58a47.231,47.231,0,0,1-3.135,11.99,628.418,628.418,0,0,1-41.366,48.31,1.23,1.23,0,0,0,1.695,1.78,258.992,258.992,0,0,0,30-29.14,140.34,140.34,0,0,0,17.015,2.57c13.708,6.08,26.85,13.05,42.394,10.11,15.973-3.02,29.149-11.21,42.071-20.76A2.13,2.13,0,0,0,153.822,1991.78Zm-19.128-56.86c12.711-8.69,28.842-13.44,43.655-17.11,11.829-2.95,24.269-2.92,12.467,11.24-7.149,8.57-16.846,14.68-26.57,19.91-16.028,8.62-33.529,10.87-51.232,12.36,15.376-5.88,30.276-14.18,43.051-21.26a1.032,1.032,0,0,0-.989-1.81c-16.691,9.4-33.954,15.03-51.587,20.22C114.167,1951.01,123.905,1942.29,134.694,1934.92Zm82.818-91.51c18.967-2.16-19.369,28.7-24.419,32.33-14.4,10.37-30.9,13.38-47.112,18.89,13.669-6.77,26.718-15.36,39.432-22.76a1.146,1.146,0,0,0-1.1-2.01c-12.493,6.93-25.127,13.17-37.848,19.27C165.187,1864.82,184.68,1847.15,217.512,1843.41Zm9.366-65.35a38.9,38.9,0,0,1,17.672-5.84c1.269-.1-12.567,21.6-14.843,23.91-8.979,9.09-20.579,14.81-32.021,20.49,6.62-6.14,13.062-12.34,19.659-17.62,0.939-.76-0.35-2.07-1.286-1.36-10.8,8.33-21.064,17.4-31.826,25.74C194.443,1805.03,208.871,1789.08,226.878,1778.06Zm6.305-58.98c9.47-6.52,5.545,4.6,2.964,9.26-2.474,4.47-5.479,8.68-8.317,12.9a162.1,162.1,0,0,1-16.36,20.33c2.685-3.82,5.229-8.03,5.873-11.7a0.162,0.162,0,0,0-.009-0.03,0.48,0.48,0,0,0-.084-0.38,0.463,0.463,0,0,0-.168-0.11,0.322,0.322,0,0,0-.175-0.09,0.458,0.458,0,0,0-.372.1c-0.007.01-.016,0-0.027,0-4.071,3.2-7.187,10.65-10,14.76-1.1,1.61-2.229,3.25-3.376,4.9C208.323,1750.06,216.612,1730.5,233.183,1719.08Zm-44.932,11.98c0.034-8.06,2.194-15.7,5.4-23.02,3.993-9.11,9.243.65,11.093,5.63,5.647,15.23-1.836,28.87-9.235,41.81,0.357-1.57.747-3.13,1.076-4.71a0.07,0.07,0,0,0,.045-0.01l1.049-1.85a0.136,0.136,0,0,0-.233-0.14c-0.221.36-.446,0.71-0.673,1.07,0.409-1.97.841-3.93,1.195-5.92,0.156-.85-1.114-1.23-1.307-0.37-1.388,6.21-3.033,12.3-4.787,18.35-0.071.13-.14,0.27-0.219,0.4C190.556,1751.88,188.2,1741.66,188.251,1731.06Zm-28.445,17.3c0.407-4.87.068-9.78,0-14.65-0.091-6.57,2.778-15.78,7.837-6.44,4.35,8.03,6.347,17.76,8.317,26.62a74.135,74.135,0,0,1,2.158,16.27c0,5.31-1.82,10.4-2.859,15.57-0.836-6.9-1.7-13.8-2.428-20.72-0.068-.65-1.1-0.94-1.24-0.18-1.344,7.55-.17,15.08.812,22.61q0.484,3.8.832,7.57C156.888,1784.71,158.377,1765.33,159.806,1748.36Zm-40.668,40.39c0.144-2.3,1.7-12.67,4.215-11.1,6.979,4.37,10.942,12.72,13.712,20.12,4.266,11.39,3.765,23.37,5.89,35-2.926-6.79-6.5-13.33-9.571-20.05-0.434-.95-1.789-0.16-1.4.77,3.526,8.38,7.593,16.54,10.687,25.09,0.424,1.18.7,2.38,1.043,3.57C124.231,1835.96,118.033,1806.32,119.138,1788.75Zm-37.584,73.2a181.371,181.371,0,0,1-3.144-20.62c-0.158-1.78-.227-16,1.688-14.74,11.981,7.79,18.971,22.98,23.615,35.93,3.987,11.12,3.723,21.66,4.387,32.69-3.26-7.86-7.542-15.33-10.057-20.48-0.553-1.14-2.248-.19-1.714.94a163.258,163.258,0,0,1,9.183,22.84,35.33,35.33,0,0,1,1.053,4.98C89.539,1895.7,85.074,1878.84,81.554,1861.95Zm-36.328,62.5a83.561,83.561,0,0,1,1.43-25.05,70.432,70.432,0,0,1,3.02-10.04c2.514-7,5.959-1.23,8.942,1.68,15.859,15.51,12.013,38.39,8.427,59.01a146.56,146.56,0,0,0-4.64-15.52,0.862,0.862,0,0,0-1.672.42,179.48,179.48,0,0,1,4.706,24.76c-0.348,2.27-.639,4.48-0.861,6.63C53.311,1954.58,47.079,1941.25,45.226,1924.45Zm88.907,78.95a67.156,67.156,0,0,1-26.765,8.66c-9.5,1.03-17.647-2.43-25.872-5.98,8.125-.32,16.021-1.84,22.7-5.49a1.062,1.062,0,0,0-1.022-1.86c-8.857,4.42-19.023,5.05-29.138,4.27-0.073-.03-0.147-0.05-0.22-0.08,8.794-2.43,17.134-6.24,25.965-8.74,13.276-3.76,31.147-4.57,44.633-1.61C150.277,1993.86,134.674,2003.09,134.133,2003.4Z" transform="translate(-20.656 -1698.44)"/>
</svg>
