<svg xmlns="http://www.w3.org/2000/svg" viewBox="0 0 510.9 422.84">
  <defs>
    <style>
      .cls-4 {
        fill: #eeaf00;
        fill-rule: evenodd;
      }
    </style>
  </defs>
  <path id="PlantShape" class="cls-4" d="M1531.59,1583.12c0.02,0.16.03,0.32,0.06,0.48h0.01l0.02,0.22a69.385,69.385,0,0,1,.86,16.11c0,0.55.01,1.11-.02,1.67a0.625,0.625,0,0,1-.14.31c2.86,14.69,4.28,29.54,5.85,44.48a0.87,0.87,0,0,1,.18-0.26c0.02,0,.02-0.01.02-0.01,0.47-3.94,1.34-7.83,3.63-10.45,0.2-1.1.36-2.08,0.54-2.75,1.1-3.96,2.26-8.26,5.13-11.34a1.608,1.608,0,0,1,2.76,1.03c1.18,11.73-3.38,24.29-9.28,34.26a1.87,1.87,0,0,1-1.6.99c1.43,10.36,3.55,20.55,5.88,30.68a61.062,61.062,0,0,1,2.75-18.68,1.781,1.781,0,0,1,2.92-.88,2.161,2.161,0,0,1,2.32,1.52c2.61,7.72,1.37,16.27-.78,24.05-0.4,2.54-.85,5.05-1.26,7.46a2.085,2.085,0,0,1-2.33,1.59c0.02,0.22.06,0.43,0.07,0.65q1.86,7.755,3.62,15.54c0.18-6.41,1.69-12.66,5.63-17.51a1.757,1.757,0,0,1,2.96.69c3.78,11.61.15,24.86-2.95,36.22a1.873,1.873,0,0,1-1.38,1.39c1.58,8.08,3.21,16.13,4.83,24.19a54.364,54.364,0,0,1,10.94-21.63,1.946,1.946,0,0,1,3.06.31c7.45,11.82-2.19,30.22-8.46,40.59a2,2,0,0,1-1.4.92q2.37,11.3,4.82,22.56c0-.05-0.01-0.11-0.01-0.15a1.26,1.26,0,0,1,.39-0.97,31.751,31.751,0,0,1,5.5-13.89,1.839,1.839,0,0,1,3.1.73,56.135,56.135,0,0,1,.77,21.95c-0.77,4.58-1.86,10.56-4.71,14.81q2.925,12.72,6.04,25.42c2.64-9.59,8.97-22.15,10.49-24.75,0.57-.97,2.35-1.33,2.91-0.1,4.41,9.78-.4,22.03-5.24,32.62a99.654,99.654,0,0,1-3.43,10.62c0.75,2.91,1.46,5.81,2.23,8.7,9.81,36.51,20.39,72.8,31.41,108.95,5.9,10.04,11.69,20.14,17.19,30.38,30.69,57.1,59.45,118.98,73.28,182.61a0.985,0.985,0,0,1-1.89.55c-23.96-64.04-45.78-127.41-79.26-187.44-0.88-1.6-1.83-3.18-2.73-4.77,1.84,5.89,3.65,11.79,5.49,17.68,15.66,49.74,35.52,98.02,51.04,147.73,0.58,1.87-2.1,2.51-2.84.82-25.95-58.96-46.91-120.78-65.38-183.19-14.91-18.11-30.7-35.05-49.12-49.44a1.7,1.7,0,0,1-2.6-1.23c-0.01-.26-0.06-0.53-0.08-0.8-0.32-.24-0.65-0.47-0.97-0.71a35.688,35.688,0,0,1-6.52-3.48c-0.69.22-1.36,0.43-2.07,0.62-11.61,6.25-30.06,4.14-40.3-3.31a1.574,1.574,0,0,1,.24-2.47c8.62-6.02,20.51-5.6,31.31-3.05a310.109,310.109,0,0,0-35.52-18.33,1.622,1.622,0,0,1-.7,1.33,23.633,23.633,0,0,1-7.68,3.08c-9.07,4.04-19.65,5.58-29.14,2.23a1.148,1.148,0,0,1-.57-1.88,29.948,29.948,0,0,1,5.69-3.82,1.375,1.375,0,0,1,.65-1.33c6.98-3.72,15.76-4.16,23.69-3.08-8.47-3.54-17.06-6.85-25.75-10.02-11.33,7.92-29.98,0-39.62-7.35a1.349,1.349,0,0,1,.54-2.27,37.688,37.688,0,0,1,6.6-1.07c-0.28-.32-0.62-0.62-0.9-0.95-0.79-.98.26-2.2,1.26-2.32,10.28-1.14,20.48,3.77,29.69,7.71,0.86,0.38.3,1.65-.56,1.49-0.89-.18-1.77-0.4-2.65-0.62,0.97,0.46,1.94.9,2.86,1.41,0.05,0.03.07,0.09,0.12,0.12,1.1,0.32,2.22.63,3.32,0.95a1.067,1.067,0,0,1,1.16.33c6.42,1.9,12.81,4.07,19.18,6.44a37.027,37.027,0,0,1-10.31-13.21c-0.47-1.11.76-1.98,1.73-1.83,14,2.1,24.76,12.55,34.89,21.61a1.709,1.709,0,0,1,.04,2.39c0.26,0.25.51,0.5,0.77,0.75,0.51,0.51-.13,1.51-0.77,1.09-0.56-.39-1.09-0.82-1.63-1.22a1.086,1.086,0,0,1-.36.7c6.46,3.07,12.8,6.43,19.03,9.97-4.18-6.13-7-12.69-7.31-18.3a1.3,1.3,0,0,1,1.59-1.29c13.98,3.89,30.84,20.81,32.15,36.53a234.17,234.17,0,0,1,39.09,35.67,1016.951,1016.951,0,0,0-87.79-122.07q-12.15-14.4-24.88-28.33a0.94,0.94,0,0,1-1.73-.16c-0.17-.77-0.37-1.53-0.54-2.29-6.94-7.55-13.96-15.03-21.14-22.39-0.11.07-.25,0.14-0.37,0.22a1.248,1.248,0,0,1,.24,2.24c-14.58,7.19-36.77-1.77-48.85-10.65a2.007,2.007,0,0,1,.3-3.16c12.08-7.41,29.57-.4,42.69,5.24q-13.845-14.055-28.22-27.69a1.124,1.124,0,0,1-.95.93c-0.43.05-.88,0.08-1.32,0.13a1.463,1.463,0,0,1-.13.09,43.04,43.04,0,0,1-18.61.4c-11.71-.85-23.43-3.86-33.19-9.46a1.758,1.758,0,0,1-.46-2.74c14.36-12.44,37.49-.36,51.54,7.71q-18.645-17.58-38.01-34.48a21.476,21.476,0,0,1-10.38,1.65c-4.83.71-10.09-.44-14.98-2.53a78.1,78.1,0,0,1-19.57-7.26,1.994,1.994,0,0,1-.12-3.43c12.78-7.09,27.76.09,39.37,6.69q-17.4-15.03-35.21-29.57a0.823,0.823,0,0,1-.21.49c-4.62,4.96-13.89,3.93-19.82,2.6-7.22-1.62-15.21-4.33-20.29-9.99-0.64-.73-0.82-2.19.26-2.68,10.96-4.97,26.07.53,35.76,6.25a1.893,1.893,0,0,1,.12,3.24c-0.23.15-.48,0.26-0.72,0.4a20.431,20.431,0,0,0,3.5-1.26,1.481,1.481,0,0,1,.19-0.03q-17.175-13.935-34.67-27.41c-12.49,3.24-27.29,3.31-38.32-3.63a1.908,1.908,0,0,1-.12-3.27c8.72-4.78,19.23-2.79,28.74.1,0.41,0.11.82,0.22,1.24,0.34q-10.41-7.92-20.88-15.71c-3.56,1.21-8.32.29-11.6-.37-6.59-1.31-13.8-3.17-19.66-6.57-1-.59-1.36-2.42-0.09-3.01a25.514,25.514,0,0,1,15.66-1.58q-5.97-4.335-11.93-8.64c-0.84-.32-1.67-0.68-2.52-1.08-8.54,3.39-21.97-.81-28.79-5.47a1.371,1.371,0,0,1-.07-2.33c4.64-3.8,9.93-4,15.36-2.54q-9.42-6.645-18.88-13.2a0.507,0.507,0,0,1-.22.29c-3.83,2.43-9.92-1.86-13.12-3.88-4.6-2.92-10.03-6.36-12.28-11.53a1.479,1.479,0,0,1,.65-1.71c9.97-4.59,22.57,6.36,28.58,14.86,6.39,3.01,12.65,6.34,18.8,9.9a51.584,51.584,0,0,1-8.38-14.24c-0.49-1.27,1.04-2.24,2.11-1.73,4.95,2.37,8.32,6.58,11.07,11.22,2.4,4.03,5.73,8.12,7.7,12.38,5.08,3.26,10.08,6.69,15.03,10.23-3.37-6.05-5.42-12.46-5.1-17.46a1.6,1.6,0,0,1,2.3-1.43c5.57,2.12,30.2,27.15,21.25,32.89,1.04,0.82,2.06,1.67,3.09,2.5,0.13,0.04.23,0.09,0.36,0.12a1.1,1.1,0,0,1,.83.83c7.07,5.72,14.03,11.59,20.93,17.54-1.36-2.26-2.56-4.58-3.65-6.71-3.08-6.02-6.3-12.46-7-19.27-0.15-1.44,1.58-1.81,2.52-1.14,10.14,7.27,17.8,20.02,18.59,32.53a1.563,1.563,0,0,1-1.43,1.73,8.074,8.074,0,0,0,.71.62,0.923,0.923,0,0,1,.29,1c8.13,7.12,16.17,14.27,24.17,21.29-6.39-8.72-10.98-19.91-10.25-29.27,0.09-1.22,1.38-2.42,2.63-1.64,13.38,8.52,21.76,24.45,23.97,39.88,0.3,2.04-2.59,2.51-3.57,1.07-0.82-1.22-1.57-2.47-2.37-3.71a0.714,0.714,0,0,1-.5-0.35c-5.26-8.41-9.65-17.35-14.8-25.84a1.936,1.936,0,0,1,1.66-2.91,40.9,40.9,0,0,0-3.4-2.94c0.65,12.51,9.62,25.31,17.71,33.93a1.078,1.078,0,0,1,.09,1.51q5.475,4.725,10.93,9.3,10.83,9.09,21.53,18.29c-7.41-10.01-12.54-22.69-10.99-34.3a1.7,1.7,0,0,1,2.44-1.11,23.162,23.162,0,0,1,3.24,1.97,1.549,1.549,0,0,1,.37.26c10.42,7.63,17.52,24.56,17.33,37.49,0.47,1.54.92,3.08,1.32,4.6a1.371,1.371,0,0,1-1.52,1.7q15.195,13.365,30.05,27.09c-7.8-10.6-12.7-25.38-10.26-37.69a1.636,1.636,0,0,1,2.31-1.04c13.26,5.18,21.78,24.96,19.03,39.42,0.52,2.56,1,5.1,1.43,7.58,0.2,1.2-1.46,2.21-2.13.94-0.48-.9-0.86-1.82-1.28-2.74a2.027,2.027,0,0,1-1.48.7q16.695,15.75,32.73,32.18c-6.73-8.59-8.15-28.63-7.74-35.63a1.567,1.567,0,0,1,2.87-.87,83.832,83.832,0,0,1,13.66,31.07,94.123,94.123,0,0,1,4.29,19.15c11.51,12.32,22.71,24.96,33.49,38.05a1063.171,1063.171,0,0,1,81.8,113.58c-8.68-30.44-16.82-60.93-24.71-91.25a1.091,1.091,0,0,1-1.12-1.27c0.1-.54.23-1.08,0.34-1.62-0.09-.34-0.17-0.67-0.26-1.01q-2.355-9.06-4.56-18.12c-8.61,9.35-36.21-16.89-40.42-23.07a1.734,1.734,0,0,1,1.85-2.6,65.49,65.49,0,0,1,7.71,2.96,1.863,1.863,0,0,1,1.61-.96c11.83-.25,21.32,10.46,28.22,19.34q-2.385-9.975-4.63-19.98a1.106,1.106,0,0,1-1.08-1.35c0.14-.47.34-0.91,0.48-1.36q-1.875-8.475-3.7-16.93a2.444,2.444,0,0,1-.31.22c0.05,0.07.12,0.16,0.17,0.23a0.792,0.792,0,0,1-1.04,1.11c-0.42-.26-0.82-0.55-1.23-0.83-9.73,1.11-18.81-10.29-25.31-19.1a19.245,19.245,0,0,0-2.8-.49c2.71,9.82,16.31,22.85,26.21,22.45,1.44-.07,1.44,2.02.05,2.2-12.25,1.53-27.81-14.92-29.51-26.21a1.422,1.422,0,0,1,1.4-1.48,17.8,17.8,0,0,1,2.18.18c-0.77-1.06-1.51-2.04-2.18-2.88-0.93-1.16.7-2.54,1.84-1.98,1.76,0.86,8.48,5.64,14.49,10.89a64.539,64.539,0,0,1,14.28,13.9c0.16-.04.33-0.01,0.48-0.05a1.11,1.11,0,0,1,.91.12c-5.39-25.24-10.42-50.58-15.51-75.98a1.32,1.32,0,0,1-.24.23,1.352,1.352,0,0,1-2.23,1.29c-0.16-.14-0.29-0.31-0.44-0.47-12.39,1.52-26.84-23.07-29.8-31.76a1.63,1.63,0,0,1,1.93-2.03c12.93,3.47,24.85,18.1,29.71,30.72,0.01,0.02.01,0.02,0.02,0.02a0.9,0.9,0,0,1,.65.02c-0.57-2.89-1.15-5.76-1.73-8.65-2.23-11.06-5.06-22-7.57-32.99a2.4,2.4,0,0,1-1.76-.9,5.467,5.467,0,0,1-.55-0.86c-7.7.2-18.52-20.83-20.9-24.69a1.586,1.586,0,0,1,2.08-2.22c6.27,3.8,11.15,9.07,15.52,14.9,0.8,1.07,2.16,2.5,3.5,4.08a212.116,212.116,0,0,1-3.71-24.23c-0.13-1.57-.25-3.13-0.37-4.69a1.09,1.09,0,0,1-.76-0.39,21.584,21.584,0,0,1-2.86-5.34c-8.6-1.48-13.22-18.71-14.02-25.19-0.2-1.51,1.77-2.1,2.76-1.25,5.63,4.85,11.29,13.49,14.12,21.86-0.86-12.27-1.69-24.53-3.55-36.67a53.387,53.387,0,0,1-1.62,6.54c-0.71,2.13-4.35,2.13-4.17-.43,0.33-4.49,1.31-9.22,1.95-13.96-2.63-4.61-2.87-18.47-2.72-20.3a1.7,1.7,0,0,1,3.12-.93,21.8,21.8,0,0,1,2.09,3.87A1.46,1.46,0,0,1,1531.59,1583.12Zm7.51,104.85c-2.01-3.04-6.19-7.9-6.97-8.91a68.826,68.826,0,0,0-5.98-6.94C1530.08,1678.52,1535.54,1686.62,1539.1,1687.97Zm7.31,46.41c-7.43-9.3-11.35-21.15-22.79-26.43C1527.62,1716.65,1537.58,1732.22,1546.41,1734.38Zm9.54,72.07c-0.97-.96-1.97-1.92-2.97-2.85-1.33-1.19-2.55-2.22-3.41-2.95a31.38,31.38,0,0,0-5.07-3.36c4.18,5.4,9.36,11.09,14.59,13.64A13.147,13.147,0,0,0,1555.95,1806.45Zm-4.28,37.98a46.3,46.3,0,0,1-3.25-4.5c-1.18-.63-2.36-1.22-3.58-1.77C1546.76,1840.08,1549.11,1842.25,1551.67,1844.43Zm23.15,12.26c-6.4-5.85-12.26-14.85-20.66-17.63a61.742,61.742,0,0,1,16.81,14.91,1.9,1.9,0,0,1-.41,2.52A7.351,7.351,0,0,0,1574.82,1856.69Zm-89.28-49.3a3.745,3.745,0,0,0,.45.12c-0.1-.72-0.2-1.44-0.31-2.17a139.131,139.131,0,0,0-6.02-15.82A89.741,89.741,0,0,0,1485.54,1807.39Zm-47.14-62.55c1.09,7.95,3.19,16.05,7.69,22.4C1443.45,1759.77,1441.72,1752.01,1438.4,1744.84Zm-2.68,8.66a112.61,112.61,0,0,1-2.57-18.04,1.809,1.809,0,0,1,1.22-1.95,21.638,21.638,0,0,0-2.59-1.86c-0.99,7.01.86,14.42,3.53,20.88C1435.4,1752.74,1435.54,1753.09,1435.72,1753.5Zm-72.79-64.62a55.651,55.651,0,0,0-9.73-17.01c1.06,1.77,2.09,3.54,3.09,5.34C1358.5,1681.11,1360.68,1685.01,1362.93,1688.88Zm-138.36-89.01c-1.09-.73-2.15-1.5-3.24-2.23a1.2,1.2,0,0,1,.26-2.17c-4.79-4.97-9.79-10.23-16.19-9.86-3.64.21-.57,2.06,1.22,3.64a54.754,54.754,0,0,0,6.99,5.25C1215.87,1595.89,1221.52,1600.06,1224.57,1599.87Zm30.72,22.86c-7.49-4.15-15.13-9.83-22.94-5.3a39.031,39.031,0,0,0,11.42,4.14C1247.23,1622.3,1251.46,1623.18,1255.29,1622.73Zm-10.6-24.39a53.484,53.484,0,0,0,7,10.24C1249.64,1604.97,1247.61,1601.22,1244.69,1598.34Zm24.58,38.65a21.917,21.917,0,0,0-7.1.26,58.062,58.062,0,0,0,7.67,2.68,16.088,16.088,0,0,1-1.38-.95A1.155,1.155,0,0,1,1269.27,1636.99Zm4.42-25.33c0.63,6.34,4.43,14.13,9.48,20.42,0.22,0.18.45,0.36,0.68,0.53-0.03-.05-0.06-0.09-0.09-0.14a0.978,0.978,0,0,1,.01-0.98c-2.51-3.67-5.12-7.28-7.5-11.05a1.01,1.01,0,0,1,1.55-1.26l0.05-.05a83.534,83.534,0,0,1,6.93,8.25h0.02c-0.43-1.02-.87-2.05-1.4-3.03-0.32-.63.61-1.22,0.96-0.59,1.03,1.87,1.73,3.91,2.9,5.7a0.731,0.731,0,0,1-.24.98c1.23,1.74,2.44,3.5,3.61,5.27a1.552,1.552,0,0,1-.14,1.92c0.31,0.23.61,0.45,0.92,0.69C1294.66,1631.74,1280.95,1616.65,1273.69,1611.66Zm22.34,53.79a13.14,13.14,0,0,1-3.64-3.75,24.159,24.159,0,0,0-7.86.79A33.646,33.646,0,0,0,1296.03,1665.45Zm46.58,29.08c-6.38-1.51-12.43-4.14-18.99-4.63A22.212,22.212,0,0,0,1342.61,1694.53Zm39.14,33.1c-6.56-2.58-13.07-6.74-19.85-6.72a43.135,43.135,0,0,0,9.16,5.24l1.1,0.27A67.24,67.24,0,0,0,1381.75,1727.63Zm14.4-15.68a70.88,70.88,0,0,0,6.3,15.2C1400.29,1722.12,1398.32,1716.99,1396.15,1711.95Zm-2.81,4.53a112.181,112.181,0,0,1-4.18-16.81A42.034,42.034,0,0,0,1393.34,1716.48Zm3.67,46.25a47.954,47.954,0,0,1-8.32-6.24,0.076,0.076,0,0,0-.02-0.04,17.7,17.7,0,0,0-3.32,1.65A62.939,62.939,0,0,0,1397.01,1762.73Zm26.72,3.63c-9.21-3.39-18.13-7.48-27.83-8.86a48.159,48.159,0,0,0,24.06,8.79c0.74,0.04,1.48.07,2.24,0.1C1422.7,1766.41,1423.21,1766.36,1423.73,1766.36Zm11.07,24.78a22.674,22.674,0,0,0-8.87,1.17,67.412,67.412,0,0,0,6.52,3.76c-0.45-.47-0.91-0.94-1.31-1.43a2.1,2.1,0,0,1,1.2-3.11A19.054,19.054,0,0,1,1434.8,1791.14Zm27.32,9.3c-8.32.11-16.25-5.62-24.73-5.42C1443.63,1799.96,1454.21,1802.46,1462.12,1800.44Zm-10.36,91.89a31.012,31.012,0,0,0,14.14,4.25q-3.6-1.29-7.23-2.57a0.687,0.687,0,0,1-.44-0.44A51.256,51.256,0,0,0,1451.76,1892.33Zm21.4,6.85c-0.17-.05-0.32-0.12-0.48-0.17-8.81,2.32-19.62-.98-26.8-7.03a37.664,37.664,0,0,0-5.51.54C1449.12,1898.37,1463.51,1903.97,1473.16,1899.18Zm25.54-2.88a100.932,100.932,0,0,0,11.78,8.37A73.457,73.457,0,0,0,1498.7,1896.3Zm-6.08,22.5a42.723,42.723,0,0,1-13.33-2.59,29.553,29.553,0,0,0-4.41,2.52A35.526,35.526,0,0,0,1492.62,1918.8Zm11.66-4.79a34.192,34.192,0,0,0-9.74-1.2c-0.15,0-.29,0-0.44.01a40.046,40.046,0,0,0-10.55,1.77C1490.17,1916.35,1498.09,1916.58,1504.28,1914.01Zm12.93-2.2c-9.71-4.14-18.23-11.22-26.02-18.22C1496.56,1902.03,1507.58,1909.39,1517.21,1911.81Zm35.21,25.82c-0.08-.07-0.18-0.17-0.27-0.24-1.22-.41-2.46-0.82-3.76-1.21a0.784,0.784,0,0,1-.7.54c-7.75.11-15.77-3.66-23.19-.92C1532.84,1939.72,1543.32,1939.73,1552.42,1937.63Zm-1.25-6.77a72.736,72.736,0,0,0-9.23-9.26,66,66,0,0,0,4.41,6.23C1547.98,1928.82,1549.57,1929.85,1551.17,1930.86Zm0.91-10.17a58.4,58.4,0,0,0-8.62-8.24c-0.65-.48-9.02-7.14-7.34-2.34a52.927,52.927,0,0,0,3.85,8.28,0.544,0.544,0,0,1,.18,0c4.95,2.02,8.9,6.21,12.62,9.92,2.81,2.81,6.41,5.84,9.27,9.16A45.51,45.51,0,0,0,1552.08,1920.69Zm31.41-59.19c0.12,0.47.25,0.94,0.36,1.41q1.92-7.875,4.5-15.54C1586.09,1852.75,1584.06,1858.23,1583.49,1861.5Zm-7.54-42.48a28.453,28.453,0,0,0,1.07-4.68,57.712,57.712,0,0,0,.13-15.42,33.473,33.473,0,0,0-2.71,10.1A25.825,25.825,0,0,1,1575.95,1819.02Zm-9.32-41.55c4.8-8.59,10.22-20.64,7.19-29.35a41.581,41.581,0,0,0-4.36,7.04,0.829,0.829,0,0,1,.57.89C1569.32,1763.25,1566.16,1770.29,1566.63,1777.47Zm-8.47-52.81a47.589,47.589,0,0,0,.74-16.9,22.813,22.813,0,0,0-1.87,4.7,1.056,1.056,0,0,1,.98,1.09C1558.09,1717.26,1558.12,1720.95,1558.16,1724.66Zm-35.47-96.23c1.49,5.82,4.35,13.65,8.34,16.32-0.52-1.49-1.04-2.96-1.64-4.36A52.765,52.765,0,0,0,1522.69,1628.43Zm22.61,5.35a1.4,1.4,0,0,1,.99,1.04,43.726,43.726,0,0,0,1.01-6.85A36.181,36.181,0,0,0,1545.3,1633.78Zm6.08,138.53c-10.96-4.03-21.71-17.99-24.74-27.32a1.868,1.868,0,0,1,2.21-2.32c12.28,3.7,20.2,17.3,26.97,27.95,0.59,0.24,1.21.54,1.79,0.72a1.077,1.077,0,0,1-.05,2.09c0.8,1.68-1.4,3.14-2.86,2.01A26.607,26.607,0,0,1,1551.38,1772.31Zm-5.55-7.43c-3.98-6.22-7.56-12.77-13.96-16.68A49.212,49.212,0,0,0,1545.83,1764.88Z" transform="translate(-1199.91 -1577.16)"/>
</svg>
